<?xml version="1.0" encoding="UTF-8" standalone="no"?>
<svg
   xmlns:dc="http://purl.org/dc/elements/1.1/"
   xmlns:cc="http://creativecommons.org/ns#"
   xmlns:rdf="http://www.w3.org/1999/02/22-rdf-syntax-ns#"
   xmlns:svg="http://www.w3.org/2000/svg"
   xmlns="http://www.w3.org/2000/svg"
   xmlns:sodipodi="http://sodipodi.sourceforge.net/DTD/sodipodi-0.dtd"
   xmlns:inkscape="http://www.inkscape.org/namespaces/inkscape"
   version="1.0"
   width="301"
   height="75"
   viewBox="0 0 3010 750"
   preserveAspectRatio="xMidYMid meet"
   id="svg56"
   sodipodi:docname="inaki-title12.svg"
   inkscape:version="0.92.2 (5c3e80d, 2017-08-06)">
  <metadata
     id="metadata62">
    <rdf:RDF>
      <cc:Work
         rdf:about="">
        <dc:format>image/svg+xml</dc:format>
        <dc:type
           rdf:resource="http://purl.org/dc/dcmitype/StillImage" />
        <dc:title></dc:title>
      </cc:Work>
    </rdf:RDF>
  </metadata>
  <defs
     id="defs60">
    <pattern
       patternUnits="userSpaceOnUse"
       width="471.85"
       height="90.906799"
       patternTransform="matrix(10,0,0,10,280,0.75)"
       id="pattern3833">
      <g
         id="g3762"
         transform="matrix(0.1,0,0,0.1,-28,-0.075)">
        <path
           d="m 1379,906 c -2,-2 -49,-11 -104,-20 -55,-9 -105,-19 -111,-21 -8,-2 -6,-21 7,-61 23,-69 26,-210 6,-239 -31,-41 -110,15 -143,101 -16,43 -16,50 -1,112 8,37 14,68 13,70 -2,1 -15,-2 -30,-8 -48,-18 -141,-28 -184,-20 l -42,7 v -37 c 0,-44 14,-53 60,-40 28,8 31,7 25,-8 -20,-53 -49,-214 -46,-260 2,-36 -16,-61 -52,-70 -21,-5 -33,-15 -35,-29 -3,-18 1,-20 40,-17 24,2 96,6 160,10 l 117,7 -13,26 c -19,36 -39,131 -34,161 3,22 6,20 28,-24 34,-67 118,-157 174,-186 60,-30 89,-19 118,47 19,44 20,58 14,237 -4,105 -3,196 1,203 5,6 21,16 36,22 18,7 25,15 21,26 -6,14 -16,19 -25,11 z"
           id="path37"
           inkscape:connector-curvature="0" />
        <path
           d="m 1848,815 4,-45 -59,30 c -99,51 -256,59 -323,18 -34,-21 -53,-88 -45,-154 19,-151 85,-238 197,-259 48,-9 142,19 189,56 20,16 40,29 43,29 9,0 7,-45 -3,-56 -4,-5 -11,-21 -14,-35 -7,-28 -5,-28 163,-59 25,-4 57,-11 73,-15 25,-7 27,-5 27,27 0,28 -5,35 -30,45 l -30,11 v 84 c 0,77 -10,161 -26,216 -6,21 -4,22 22,16 29,-8 63,-8 70,-1 2,2 7,23 10,48 l 6,44 -74,1 c -64,2 -140,17 -188,38 -13,5 -15,-2 -12,-39 z m -36,-150 c 84,-44 94,-72 35,-96 -69,-29 -241,-5 -300,42 -33,25 -34,44 -4,60 69,38 190,35 269,-6 z"
           id="path39"
           inkscape:connector-curvature="0" />
        <path
           d="m 280,838 c 1,-40 13,-58 40,-58 15,0 37,-8 48,-17 29,-26 53,-164 55,-320 2,-146 -5,-166 -53,-157 -21,5 -31,1 -44,-17 -8,-12 -14,-25 -11,-27 2,-3 42,-8 87,-13 145,-14 262,-28 286,-35 31,-9 30,22 -3,48 -42,33 -55,71 -67,202 -9,93 -9,144 -1,196 14,88 33,113 80,104 31,-6 33,-5 33,24 0,17 3,38 7,48 6,16 -2,17 -103,10 -97,-6 -245,3 -326,20 -20,4 -28,2 -28,-8 z"
           id="path41"
           inkscape:connector-curvature="0" />
        <path
           d="m 2395,828 c -33,-11 -100,-22 -148,-25 l -88,-6 3,-36 3,-36 47,3 47,3 -10,-33 c -6,-18 -17,-67 -25,-108 -14,-74 -18,-106 -32,-265 l -7,-80 -35,-11 c -52,-17 -51,-51 0,-46 3,0 69,-5 145,-13 77,-7 142,-11 144,-10 1,2 -6,32 -17,67 -30,90 -42,169 -42,267 v 86 l 33,-60 c 53,-97 60,-105 112,-134 106,-61 210,-58 277,6 94,89 31,175 -129,177 -61,1 -76,-2 -93,-20 -37,-36 0,-89 88,-124 42,-16 36,-36 -11,-33 -45,3 -104,32 -138,70 -29,31 -79,104 -79,114 0,4 26,10 58,14 181,21 318,105 339,205 l 6,30 h -55 c -30,0 -96,-3 -147,-7 -77,-5 -91,-9 -89,-22 2,-9 13,-17 25,-19 12,-2 27,-10 34,-18 31,-37 -64,-104 -158,-112 -60,-5 -65,3 -39,61 17,38 47,130 43,132 -1,1 -29,-7 -62,-17 z"
           id="path43"
           inkscape:connector-curvature="0" />
        <path
           d="m 2862,813 c 2,-22 9,-29 36,-34 18,-4 41,-14 51,-23 43,-39 68,-227 35,-260 -8,-9 -29,-16 -45,-16 -22,0 -30,-5 -35,-25 -4,-14 -4,-28 -2,-31 3,-2 36,-6 74,-9 38,-2 104,-14 148,-25 43,-12 80,-19 82,-18 2,2 -3,44 -11,93 -8,50 -15,125 -15,167 0,93 18,122 70,112 30,-6 30,-6 30,37 v 44 h -147 c -82,0 -176,4 -211,8 l -63,8 z"
           id="path45"
           inkscape:connector-curvature="0" />
        <path
           d="m 1045,290 c -33,-22 -65,-40 -72,-40 -6,0 -23,14 -36,30 -31,36 -37,37 -37,7 0,-27 43,-92 70,-107 24,-13 69,4 124,49 48,38 74,39 102,4 34,-43 37,-23 6,38 -24,48 -31,54 -62,57 -27,2 -49,-7 -95,-38 z"
           id="path47"
           inkscape:connector-curvature="0" />
        <path
           d="m 3060,310 c -72,-13 -113,-58 -90,-100 21,-39 154,-54 235,-26 50,18 84,59 69,84 -19,30 -144,54 -214,42 z"
           id="path49"
           inkscape:connector-curvature="0" />
        <path
           d="m 4992,210 c 0,-14 2,-19 5,-12 2,6 2,18 0,25 -3,6 -5,1 -5,-13 z"
           id="path51"
           inkscape:connector-curvature="0" />
        <path
           d="m 4863,3 c 4,-3 10,-3 14,0 3,4 0,7 -7,7 -7,0 -10,-3 -7,-7 z"
           id="path53"
           inkscape:connector-curvature="0" />
      </g>
    </pattern>
  </defs>
  <sodipodi:namedview
     pagecolor="#ffffff"
     bordercolor="#666666"
     borderopacity="1"
     objecttolerance="10"
     gridtolerance="10"
     guidetolerance="10"
     inkscape:pageopacity="0"
     inkscape:pageshadow="2"
     inkscape:window-width="1366"
     inkscape:window-height="715"
     id="namedview58"
     showgrid="false"
     inkscape:zoom="2.422"
     inkscape:cx="235.66584"
     inkscape:cy="43.132489"
     inkscape:window-x="-8"
     inkscape:window-y="-8"
     inkscape:window-maximized="1"
     inkscape:current-layer="svg56" />
  <g
     id="g3918">
    <path
       d="m 1102.3691,743.84476 c -2,-2 -49,-11 -103.99998,-20 -55,-9 -105,-19 -111,-21 -8,-2 -6,-21 7,-61 23,-69 26,-210 6,-239 -31,-41 -110,15 -143,101 -16,43 -16,50 -1,112 8,37 14,68 13,70 -2,1 -15,-2 -30,-8 -48,-18 -141,-28 -184,-20 l -42,7 v -37 c 0,-44 14,-53 60,-40 28,8 31,7 25,-8 -20,-53 -49,-214 -46,-260 2,-36 -16,-61 -52,-70 -21,-5 -33,-15 -35,-29 -3,-18 1,-20 40,-17 24,2 96,6 160,10 l 117,7 -13,26 c -19,36 -39,131 -34,161 3,22 6,20 28,-24 34,-67 118,-157 174,-186 60,-30 88.99998,-19 117.99998,47 19,44 20,58 14,237 -4,105 -3,196 1,203 5,6 21,16 36,22 18,7 25,15 21,26 -6,14 -16,19 -25,11 z"
       id="path3847"
       inkscape:connector-curvature="0"
       style="fill:#47016e;stroke:none" />
    <path
       d="m 1571.3691,652.84476 4,-45 -59,30 c -99,51 -256,59 -323,18 -34,-21 -53,-88 -45,-154 19,-151 85,-238 197,-259 48,-9 142,19 189,56 20,16 40,29 43,29 9,0 7,-45 -3,-56 -4,-5 -11,-21 -14,-35 -7,-28 -5,-28 163,-59 25,-4 57,-11 73,-15 25,-7 27,-5 27,27 0,28 -5,35 -30,45 l -30,11 v 84 c 0,77 -10,161 -26,216 -6,21 -4,22 22,16 29,-8 63,-8 70,-1 2,2 7,23 10,48 l 6,44 -74,1 c -64,2 -140,17 -188,38 -13,5 -15,-2 -12,-39 z m -36,-150 c 84,-44 94,-72 35,-96 -69,-29 -241,-5 -300,42 -33,25 -34,44 -4,60 69,38 190,35 269,-6 z"
       id="path3849"
       inkscape:connector-curvature="0"
       style="fill:#47016e;stroke:none" />
    <path
       d="m 3.36912,675.84476 c 1,-40 13,-58 40,-58 15,0 37,-8 48,-17 29,-26 53,-164 55,-320 2,-146 -5,-166 -53,-157 -21,5 -31,1 -44,-17 -8,-12 -14,-25 -11,-27 2,-3 42,-8 87,-13 145,-14 262,-28 286,-35 31,-9 30,22 -3,48 -42,33 -55,71 -67,202 -9,93 -9,144 -1,196 14,88 33,113 80,104 31,-6 33,-5 33,24 0,17 3,38 7,48 6,16 -2,17 -103,10 -97,-6 -245,3 -326,20 -20,4 -28,2 -28,-8 z"
       id="path3851"
       inkscape:connector-curvature="0"
       style="fill:#47016e;stroke:none" />
    <path
       d="m 2118.3691,665.84476 c -33,-11 -100,-22 -148,-25 l -88,-6 3,-36 3,-36 47,3 47,3 -10,-33 c -6,-18 -17,-67 -25,-108 -14,-74 -18,-106 -32,-265 l -7,-80 -35,-11 c -52,-17 -51,-51 0,-46 3,0 69,-5 145,-13 77,-7 142,-11 144,-10 1,2 -6,32 -17,67 -30,90 -42,169 -42,267 v 86 l 33,-60 c 53,-97 60,-105 112,-134 106,-61 210,-58 277,6 94,89 31,175 -129,177 -61,1 -76,-2 -93,-20 -37,-36 0,-89 88,-124 42,-16 36,-36 -11,-33 -45,3 -104,32 -138,70 -29,31 -79,104 -79,114 0,4 26,10 58,14 181,21 318,105 339,205 l 6,30 h -55 c -30,0 -96,-3 -147,-7 -77,-5 -91,-9 -89,-22 2,-9 13,-17 25,-19 12,-2 27,-10 34,-18 31,-37 -64,-104 -158,-112 -60,-5 -65,3 -39,61 17,38 47,130 43,132 -1,1 -29,-7 -62,-17 z"
       id="path3853"
       inkscape:connector-curvature="0"
       style="fill:#47016e;stroke:none" />
    <path
       d="m 2585.3691,650.84476 c 2,-22 9,-29 36,-34 18,-4 41,-14 51,-23 43,-39 68,-227 35,-260 -8,-9 -29,-16 -45,-16 -22,0 -30,-5 -35,-25 -4,-14 -4,-28 -2,-31 3,-2 36,-6 74,-9 38,-2 104,-14 148,-25 43,-12 80,-19 82,-18 2,2 -3,44 -11,93 -8,50 -15,125 -15,167 0,93 18,122 70,112 30,-6 30,-6 30,37 v 44 h -147 c -82,0 -176,4 -211,8 l -63,8 z"
       id="path3855"
       inkscape:connector-curvature="0"
       style="fill:#47016e;stroke:none" />
    <path
       d="m 768.36912,127.84476 c -33,-22 -65,-40 -72,-40 -6,0 -23,14 -36,30 -31,36 -37,37 -37,7 0,-27 43,-92 70,-107 24,-13 69,4 124,49 48,38 74,39 102,4 34,-43 37,-23 6,38 -24,48 -31,54 -62,57 -27,2 -49,-7 -95,-38 z"
       id="path3857"
       inkscape:connector-curvature="0"
       style="fill:#47016e;stroke:none" />
    <path
       d="m 2783.3691,147.84476 c -72,-13 -113,-58 -90,-100 21,-39 154,-54 235,-26 50,18 84,59 69,84 -19,30 -144,54 -214,42 z"
       id="path3859"
       inkscape:connector-curvature="0"
       style="fill:#47016e;stroke:none" />
  </g>
</svg>
