<!DOCTYPE svg PUBLIC "-//W3C//DTD SVG 20010904//EN" "http://www.w3.org/TR/2001/REC-SVG-20010904/DTD/svg10.dtd">
<svg version="1.0" xmlns="http://www.w3.org/2000/svg" width="500px" height="142px" viewBox="0 0 5000 1420" preserveAspectRatio="xMidYMid meet">
<g id="layer101" fill="#47016e" stroke="none">
 <path d="M1379 906 c-2 -2 -49 -11 -104 -20 -55 -9 -105 -19 -111 -21 -8 -2 -6 -21 7 -61 23 -69 26 -210 6 -239 -31 -41 -110 15 -143 101 -16 43 -16 50 -1 112 8 37 14 68 13 70 -2 1 -15 -2 -30 -8 -48 -18 -141 -28 -184 -20 l-42 7 0 -37 c0 -44 14 -53 60 -40 28 8 31 7 25 -8 -20 -53 -49 -214 -46 -260 2 -36 -16 -61 -52 -70 -21 -5 -33 -15 -35 -29 -3 -18 1 -20 40 -17 24 2 96 6 160 10 l117 7 -13 26 c-19 36 -39 131 -34 161 3 22 6 20 28 -24 34 -67 118 -157 174 -186 60 -30 89 -19 118 47 19 44 20 58 14 237 -4 105 -3 196 1 203 5 6 21 16 36 22 18 7 25 15 21 26 -6 14 -16 19 -25 11z"/>
 <path d="M1848 815 l4 -45 -59 30 c-99 51 -256 59 -323 18 -34 -21 -53 -88 -45 -154 19 -151 85 -238 197 -259 48 -9 142 19 189 56 20 16 40 29 43 29 9 0 7 -45 -3 -56 -4 -5 -11 -21 -14 -35 -7 -28 -5 -28 163 -59 25 -4 57 -11 73 -15 25 -7 27 -5 27 27 0 28 -5 35 -30 45 l-30 11 0 84 c0 77 -10 161 -26 216 -6 21 -4 22 22 16 29 -8 63 -8 70 -1 2 2 7 23 10 48 l6 44 -74 1 c-64 2 -140 17 -188 38 -13 5 -15 -2 -12 -39z m-36 -150 c84 -44 94 -72 35 -96 -69 -29 -241 -5 -300 42 -33 25 -34 44 -4 60 69 38 190 35 269 -6z"/>
 <path d="M280 838 c1 -40 13 -58 40 -58 15 0 37 -8 48 -17 29 -26 53 -164 55 -320 2 -146 -5 -166 -53 -157 -21 5 -31 1 -44 -17 -8 -12 -14 -25 -11 -27 2 -3 42 -8 87 -13 145 -14 262 -28 286 -35 31 -9 30 22 -3 48 -42 33 -55 71 -67 202 -9 93 -9 144 -1 196 14 88 33 113 80 104 31 -6 33 -5 33 24 0 17 3 38 7 48 6 16 -2 17 -103 10 -97 -6 -245 3 -326 20 -20 4 -28 2 -28 -8z"/>
 <path d="M2395 828 c-33 -11 -100 -22 -148 -25 l-88 -6 3 -36 3 -36 47 3 47 3 -10 -33 c-6 -18 -17 -67 -25 -108 -14 -74 -18 -106 -32 -265 l-7 -80 -35 -11 c-52 -17 -51 -51 0 -46 3 0 69 -5 145 -13 77 -7 142 -11 144 -10 1 2 -6 32 -17 67 -30 90 -42 169 -42 267 l0 86 33 -60 c53 -97 60 -105 112 -134 106 -61 210 -58 277 6 94 89 31 175 -129 177 -61 1 -76 -2 -93 -20 -37 -36 0 -89 88 -124 42 -16 36 -36 -11 -33 -45 3 -104 32 -138 70 -29 31 -79 104 -79 114 0 4 26 10 58 14 181 21 318 105 339 205 l6 30 -55 0 c-30 0 -96 -3 -147 -7 -77 -5 -91 -9 -89 -22 2 -9 13 -17 25 -19 12 -2 27 -10 34 -18 31 -37 -64 -104 -158 -112 -60 -5 -65 3 -39 61 17 38 47 130 43 132 -1 1 -29 -7 -62 -17z"/>
 <path d="M2862 813 c2 -22 9 -29 36 -34 18 -4 41 -14 51 -23 43 -39 68 -227 35 -260 -8 -9 -29 -16 -45 -16 -22 0 -30 -5 -35 -25 -4 -14 -4 -28 -2 -31 3 -2 36 -6 74 -9 38 -2 104 -14 148 -25 43 -12 80 -19 82 -18 2 2 -3 44 -11 93 -8 50 -15 125 -15 167 0 93 18 122 70 112 30 -6 30 -6 30 37 l0 44 -147 0 c-82 0 -176 4 -211 8 l-63 8 3 -28z"/>
 <path d="M1045 290 c-33 -22 -65 -40 -72 -40 -6 0 -23 14 -36 30 -31 36 -37 37 -37 7 0 -27 43 -92 70 -107 24 -13 69 4 124 49 48 38 74 39 102 4 34 -43 37 -23 6 38 -24 48 -31 54 -62 57 -27 2 -49 -7 -95 -38z"/>
 <path d="M3060 310 c-72 -13 -113 -58 -90 -100 21 -39 154 -54 235 -26 50 18 84 59 69 84 -19 30 -144 54 -214 42z"/>
 <path d="M4992 210 c0 -14 2 -19 5 -12 2 6 2 18 0 25 -3 6 -5 1 -5 -13z"/>
 <path d="M4863 3 c4 -3 10 -3 14 0 3 4 0 7 -7 7 -7 0 -10 -3 -7 -7z"/>
 </g>

</svg>